<svg width="195" height="23" viewBox="0 0 195 23" fill="none" xmlns="http://www.w3.org/2000/svg">
<path d="M18.9005 21.9922H16.7677V11.0938H14.1661V20.9844H12.0802V1.55469H14.1661V9.28906H16.7677V0.992188H18.9005V21.9922ZM0.853592 15.9922C3.10359 14.7109 4.78328 13.1992 5.89265 11.457C7.00203 9.71484 7.64656 7.72656 7.82625 5.49219H1.74422V3.66406H9.99422C9.9864 6.65625 9.38484 9.31641 8.18953 11.6445C6.99422 13.9727 4.97859 15.9375 2.14265 17.5391L0.853592 15.9922ZM39.3202 16.2734H37.0936V1.01562H39.3202V16.2734ZM22.328 7.625C22.328 6.63281 22.5741 5.74219 23.0662 4.95312C23.5584 4.16406 24.2303 3.54688 25.0819 3.10156C25.9334 2.64844 26.8827 2.42188 27.9295 2.42188C28.9764 2.42188 29.9217 2.64844 30.7655 3.10156C31.617 3.54688 32.285 4.16406 32.7694 4.95312C33.2616 5.74219 33.5077 6.63281 33.5077 7.625C33.5077 8.63281 33.2616 9.53516 32.7694 10.332C32.285 11.1211 31.617 11.7383 30.7655 12.1836C29.9217 12.6289 28.9764 12.8516 27.9295 12.8516C26.8827 12.8516 25.9334 12.6289 25.0819 12.1836C24.2303 11.7383 23.5584 11.1211 23.0662 10.332C22.5741 9.53516 22.328 8.63281 22.328 7.625ZM24.5077 7.625C24.5077 8.27344 24.6522 8.84766 24.9412 9.34766C25.2381 9.83984 25.6483 10.2227 26.1717 10.4961C26.6952 10.7695 27.2811 10.9062 27.9295 10.9062C28.5702 10.9062 29.1483 10.7695 29.6639 10.4961C30.1795 10.2227 30.5858 9.83984 30.8827 9.34766C31.1795 8.84766 31.328 8.27344 31.328 7.625C31.328 6.99219 31.1795 6.42969 30.8827 5.9375C30.5858 5.4375 30.1795 5.05078 29.6639 4.77734C29.1483 4.50391 28.5702 4.36719 27.9295 4.36719C27.2811 4.36719 26.6952 4.50391 26.1717 4.77734C25.6483 5.05078 25.2381 5.4375 24.9412 5.9375C24.6522 6.42969 24.5077 6.99219 24.5077 7.625ZM25.5858 14.7266H27.8358V19.7422H39.953V21.5469H25.5858V14.7266ZM53.5523 4.4375H46.0289V7.08594H53.1539V8.86719H46.0289V11.6797C48.1227 11.6641 49.7984 11.6172 51.0562 11.5391C52.3219 11.4609 53.5914 11.3125 54.8648 11.0938L55.0992 12.8281C53.7398 13.0859 52.3687 13.2578 50.9859 13.3438C49.6109 13.4297 47.7633 13.4766 45.443 13.4844H43.8023V2.65625H53.5523V4.4375ZM46.0758 15.125H48.3023V19.7422H60.2789V21.5469H46.0758V15.125ZM57.1617 0.96875H59.3883V7.41406H62.4352V9.26562H59.3883V16.5312H57.1617V0.96875ZM83.0892 19.3203H63.8705V17.4922H72.2845V12.5H74.4877V17.4922H83.0892V19.3203ZM64.5267 11.0469C65.8627 10.8203 67.1166 10.3516 68.2884 9.64062C69.4681 8.92969 70.4134 8.07031 71.1244 7.0625C71.8353 6.04688 72.1908 5 72.1908 3.92188V2.32812H74.5345V3.92188C74.5345 5 74.89 6.04688 75.6009 7.0625C76.3197 8.07031 77.2689 8.92969 78.4486 9.64062C79.6361 10.3516 80.9017 10.8203 82.2455 11.0469L81.2845 12.875C80.1439 12.6484 79.0541 12.2734 78.015 11.75C76.9837 11.2266 76.0658 10.5781 75.2611 9.80469C74.4564 9.02344 73.8275 8.16406 73.3744 7.22656C72.9212 8.16406 72.2923 9.01953 71.4877 9.79297C70.6908 10.5664 69.7767 11.2188 68.7455 11.75C67.722 12.2734 66.6439 12.6484 65.5111 12.875L64.5267 11.0469ZM96.548 3.75781V4.02734C96.5323 5.05078 96.4894 6.01953 96.4191 6.93359C96.3566 7.83984 96.2198 8.85156 96.0089 9.96875L93.8058 9.75781C94.0089 8.71875 94.1456 7.78125 94.2159 6.94531C94.2941 6.10938 94.3409 5.26562 94.3566 4.41406H85.9542V2.58594H96.548V3.75781ZM84.6886 11.7734C86.1808 11.7734 87.6105 11.7578 88.9777 11.7266V7.29688H91.1808V11.6562C93.7902 11.5469 96.0167 11.3594 97.8605 11.0938L98.0011 12.7109C96.0558 13.0547 94.0011 13.2852 91.837 13.4023C89.673 13.5117 87.3605 13.5703 84.8995 13.5781L84.6886 11.7734ZM87.8761 15.3359H90.1027V19.7422H102.15V21.5469H87.8761V15.3359ZM99.1964 0.992188H101.47V7.67188H104.353V9.54688H101.47V16.7656H99.1964V0.992188ZM123.272 22.0391H121.046V0.992188H123.272V22.0391ZM107.007 2.89062H116.85V10.5547H109.304V15.1484C111.124 15.1406 112.807 15.082 114.354 14.9727C115.909 14.8633 117.522 14.6719 119.194 14.3984L119.405 16.2266C117.663 16.5156 115.972 16.7148 114.331 16.8242C112.69 16.9336 110.85 16.9922 108.811 17H107.03V8.77344H114.577V4.69531H107.007V2.89062ZM150.26 3.3125H147.213V6.94531H150.166V8.65625H134.768V6.94531H137.745V3.3125H134.674V1.625H150.26V3.3125ZM132.916 10.2031H152.065V11.9609H132.916V10.2031ZM135.213 13.6016H149.651V18.4062H137.416V20.0938H150.237V21.7812H135.237V16.8359H147.448V15.2656H135.213V13.6016ZM144.987 6.94531V3.3125H139.948V6.94531H144.987ZM171.805 15.2656H169.695V8.1875H167.117V13.4609H165.031V1.39062H167.117V6.35938H169.695V1.01562H171.805V15.2656ZM154.789 2.58594H162.758V8.60938H156.992V11.3984C158.367 11.3906 159.582 11.3438 160.637 11.2578C161.699 11.1719 162.781 11.0156 163.883 10.7891L164.117 12.5469C162.899 12.7969 161.711 12.9648 160.555 13.0508C159.399 13.1289 157.953 13.1719 156.219 13.1797H154.836V6.96875H160.625V4.39062H154.789V2.58594ZM156.524 20.1641C157.828 19.9766 159.016 19.6211 160.086 19.0977C161.164 18.5664 162.016 17.9258 162.641 17.1758C163.266 16.418 163.578 15.6172 163.578 14.7734V14.2812H165.805V14.7734C165.805 15.6172 166.117 16.418 166.742 17.1758C167.367 17.9258 168.219 18.5664 169.297 19.0977C170.375 19.6211 171.57 19.9766 172.883 20.1641L171.992 21.8984C170.36 21.6406 168.895 21.1328 167.598 20.375C166.309 19.625 165.344 18.707 164.703 17.6211C164.055 18.707 163.082 19.625 161.785 20.375C160.496 21.1328 159.039 21.6406 157.414 21.8984L156.524 20.1641ZM194.029 13.2266H174.881V11.4453H183.318V9.26562H176.732V7.46094H179.709V3.45312H176.639V1.64844H192.225V3.45312H189.178V7.46094H192.131V9.26562H185.545V11.4453H194.029V13.2266ZM177.178 15.0547H191.685V21.7344H177.178V15.0547ZM189.529 19.9297V16.7891H179.381V19.9297H189.529ZM186.951 7.46094V3.45312H181.912V7.46094H186.951Z" fill="white"/>
</svg>
