<svg width="111" height="13" viewBox="0 0 111 13" fill="none" xmlns="http://www.w3.org/2000/svg">
<path d="M3.07031 12L0.492188 3.51562H1.91406L3.72656 9.98438H3.80469L5.60156 3.51562H7.03906L8.80469 9.95312H8.89844L10.7109 3.51562H12.1172L9.53906 12H8.21094L6.36719 5.53125H6.24219L4.41406 12H3.07031ZM13.6016 12V3.51562H14.9453V12H13.6016ZM13.3359 1.21875C13.3281 0.71875 13.7578 0.320312 14.2734 0.328125C14.7891 0.320312 15.2188 0.71875 15.2266 1.21875C15.2188 1.71094 14.7891 2.10938 14.2734 2.10938C13.7578 2.10938 13.3281 1.71094 13.3359 1.21875ZM20.7891 3.51562V4.64062H19.0078V9.5625C19 10.6484 19.5469 10.8281 20.1172 10.8281C20.3594 10.8281 20.7188 10.8047 20.9141 10.7969V12.0469C20.7031 12.0781 20.375 12.1094 19.9766 12.1094C18.8438 12.1094 17.6562 11.4062 17.6484 9.90625V4.64062H16.3672V3.51562H17.6484V1.48438H19.0078V3.51562H20.7891ZM24.0547 6.90625V12H22.7109V0.6875H24.0547V4.84375H24.1641C24.5625 3.96875 25.3203 3.40625 26.6641 3.40625C28.3984 3.40625 29.5547 4.42969 29.5547 6.60938V12H28.2109V6.70312C28.2109 5.36719 27.4766 4.60938 26.2578 4.60938C24.9922 4.60938 24.0547 5.4375 24.0547 6.90625ZM35.8984 12V0.6875H39.8672C42.2422 0.6875 43.3594 2.02344 43.3516 3.6875C43.3594 5.14062 42.4922 5.78906 41.5078 6.0625V6.17188C42.5625 6.23438 43.7969 7.20312 43.8047 9C43.7969 10.6953 42.6797 12 40.0078 12H35.8984ZM37.3047 10.75H39.9922C41.7656 10.75 42.4531 9.96875 42.4453 8.98438C42.4531 7.83594 41.5234 6.85938 40.0703 6.85938H37.3047V10.75ZM37.3047 5.64062H39.8203C41.0469 5.64844 42.0078 4.88281 42.0078 3.70312C42.0078 2.71875 41.3438 1.9375 39.8672 1.9375H37.3047V5.64062ZM46.9766 0.6875V12H45.6328V0.6875H46.9766ZM52.5859 12.1719C50.2734 12.1797 48.7109 10.4297 48.7109 7.79688C48.7109 5.14844 50.2734 3.40625 52.5859 3.40625C54.8906 3.40625 56.4375 5.14844 56.4297 7.79688C56.4375 10.4297 54.8906 12.1797 52.5859 12.1719ZM50.0547 7.79688C50.0625 9.49219 50.8594 10.9844 52.5859 10.9844C54.2969 10.9844 55.0859 9.49219 55.0859 7.79688C55.0859 6.10938 54.2969 4.59375 52.5859 4.59375C50.8594 4.59375 50.0625 6.10938 50.0547 7.79688ZM61.6641 12.1719C59.2578 12.1797 57.7891 10.3438 57.7891 7.79688C57.7891 5.21875 59.3281 3.40625 61.6328 3.40625C63.4375 3.40625 64.7969 4.47656 65.0078 6.07812H63.6641C63.4688 5.30469 62.7969 4.59375 61.6641 4.59375C60.1484 4.59375 59.1406 5.84375 59.1328 7.75C59.1406 9.71094 60.125 10.9688 61.6641 10.9688C62.6641 10.9688 63.4297 10.4297 63.6641 9.5H65.0078C64.7969 11.0156 63.5469 12.1797 61.6641 12.1719ZM66.6641 12V0.6875H68.0078V7.26562H68.1641L71.8359 3.51562H73.4922L69.9141 7.14844L73.7578 12H72.0547L68.9062 8L68.0078 8.83594V12H66.6641ZM78.0391 12.1719C75.6328 12.1797 74.1641 10.3438 74.1641 7.79688C74.1641 5.21875 75.7031 3.40625 78.0078 3.40625C79.8125 3.40625 81.1719 4.47656 81.3828 6.07812H80.0391C79.8438 5.30469 79.1719 4.59375 78.0391 4.59375C76.5234 4.59375 75.5156 5.84375 75.5078 7.75C75.5156 9.71094 76.5 10.9688 78.0391 10.9688C79.0391 10.9688 79.8047 10.4297 80.0391 9.5H81.3828C81.1719 11.0156 79.9219 12.1797 78.0391 12.1719ZM84.3828 6.90625V12H83.0391V0.6875H84.3828V4.84375H84.4922C84.8906 3.96875 85.6484 3.40625 86.9922 3.40625C88.7266 3.40625 89.8828 4.42969 89.8828 6.60938V12H88.5391V6.70312C88.5391 5.36719 87.8047 4.60938 86.5859 4.60938C85.3203 4.60938 84.3828 5.4375 84.3828 6.90625ZM91.6328 9.59375C91.6328 7.64844 93.3516 7.20312 94.8203 7.09375C95.3672 7.05469 96.7344 6.97656 97.1172 6.96875V6.28125C97.1172 5.20312 96.4766 4.57812 95.1953 4.57812C94.125 4.57812 93.4766 5.07031 93.2891 5.71875H91.8828C92.0547 4.35156 93.3828 3.40625 95.2578 3.40625C96.3672 3.40625 98.4531 3.73438 98.4453 6.40625V12H97.1172V10.8438H97.0547C96.7734 11.4141 96 12.1953 94.5234 12.2031C92.9141 12.1953 91.6328 11.25 91.6328 9.59375ZM92.9766 9.65625C92.9844 10.5547 93.7266 11.0078 94.7578 11C96.2734 11.0078 97.1172 9.99219 97.1172 8.92188V8.07031C96.7188 8.09375 95.3828 8.19531 94.9766 8.21875C93.7578 8.29688 92.9844 8.72656 92.9766 9.65625ZM100.602 12V3.51562H101.945V12H100.602ZM100.336 1.21875C100.328 0.71875 100.758 0.320312 101.273 0.328125C101.789 0.320312 102.219 0.71875 102.227 1.21875C102.219 1.71094 101.789 2.10938 101.273 2.10938C100.758 2.10938 100.328 1.71094 100.336 1.21875ZM105.43 6.90625V12H104.086V3.51562H105.383V4.84375H105.492C105.891 3.97656 106.688 3.40625 107.977 3.40625C109.695 3.40625 110.844 4.45312 110.836 6.60938V12H109.492V6.70312C109.492 5.39062 108.773 4.60938 107.57 4.60938C106.336 4.60938 105.43 5.4375 105.43 6.90625Z" fill="#C7C7CC"/>
</svg>
