<svg width="242" height="50" viewBox="0 0 242 50" fill="none" xmlns="http://www.w3.org/2000/svg">
<g id="wwooss">
<path d="M47.4609 46.6208H41.7706L38.7691 50L28.9518 41.3016V46.6208H18.5716V40.4881L7.87888 50L4.8774 46.6208H0V4.94368H10.4426V33.7297L18.5716 26.5332V4.94368H28.9518V27.3467L37.0182 34.4806V4.94368H47.4609V46.6208Z" fill="#AFFC41"/>
<path d="M100.527 46.6208H94.8362L91.8348 50L82.0174 41.3016V46.6208H71.6373V40.4881L60.9446 50L57.9431 46.6208H53.0657V4.94368H63.5083V33.7297L71.6373 26.5332V4.94368H82.0174V27.3467L90.0839 34.4806V4.94368H100.527V46.6208Z" fill="#AFFC41"/>
<path d="M132.207 4.94368H134.645V46.6208H106.069V8.51064L106.006 8.38548L130.518 0L132.207 4.94368ZM116.449 36.1702H124.203V13.204L116.449 15.8323V36.1702Z" fill="#AFFC41"/>
<path d="M166.342 4.94368H168.781V46.6208H140.204V8.51064L140.142 8.38548L164.654 0L166.342 4.94368ZM150.584 36.1702H158.338V13.204L150.584 15.8323V36.1702Z" fill="#AFFC41"/>
<path d="M185.408 20.6508H205.605V46.6208H173.527V36.1702H195.162V31.1014H174.965V4.94368H180.218L181.718 0.688363L205.042 8.76095L201.666 18.5857L185.408 13.0163V20.6508Z" fill="#AFFC41"/>
<path d="M221.803 20.6508H242V46.6208H209.922V36.1702H231.557V31.1014H211.36V4.94368H216.612L218.113 0.688363L241.437 8.76095L238.061 18.5857L221.803 13.0163V20.6508Z" fill="#AFFC41"/>
</g>
</svg>
